<?xml version="1.0" encoding="UTF-8"?>
<svg width="128px" height="70px" viewBox="0 0 128 70" version="1.1" xmlns="http://www.w3.org/2000/svg" xmlns:xlink="http://www.w3.org/1999/xlink">
    <title>Group</title>
    <g id="Page-1" stroke="none" stroke-width="1" fill="none" fill-rule="evenodd">
        <g id="Group" fill="#000000" fill-rule="nonzero">
            <path d="M5.453,32.814 C6.80966667,32.814 7.8765,32.3268333 8.6535,31.3525 C9.4305,30.3781667 9.819,29.1633333 9.819,27.708 L9.819,27.708 L9.819,21.566 C9.819,20.3573333 10.0533333,19.679 10.522,19.531 C10.7933333,19.4816667 10.929,19.3213333 10.929,19.05 C10.929,18.7293333 10.7686667,18.569 10.448,18.569 L10.448,18.569 L6.119,18.569 C5.79833333,18.569 5.638,18.7293333 5.638,19.05 C5.638,19.2473333 5.786,19.4076667 6.082,19.531 C6.526,19.679 6.748,20.3573333 6.748,21.566 L6.748,21.566 L6.748,26.672 C4.79933333,25.0193333 3.825,23.1446667 3.825,21.048 L3.825,21.048 L3.825,7.173 C3.825,6.30966667 4.28133333,5.878 5.194,5.878 C6.13133333,5.878 6.6,6.30966667 6.6,7.173 L6.6,7.173 L6.6,9.837 C6.156,10.0096667 5.934,10.1823333 5.934,10.355 C5.934,10.5523333 6.10666667,10.651 6.452,10.651 L6.452,10.651 L10.522,10.651 C10.8426667,10.651 11.003,10.5523333 11.003,10.355 C11.003,10.1083333 10.855,9.948 10.559,9.874 L10.559,9.874 L10.411,9.8 C10.411,8.36933333 9.96083333,7.17916667 9.0605,6.2295 C8.16016667,5.27983333 7.01933333,4.805 5.638,4.805 C4.306,4.805 3.16516667,5.2675 2.2155,6.1925 C1.26583333,7.1175 0.791,8.246 0.791,9.578 L0.791,9.578 L0.791,21.307 C0.791,21.7016667 0.877333333,22.0963333 1.05,22.491 C1.22266667,22.8856667 1.40766667,23.2248333 1.605,23.5085 C1.80233333,23.7921667 2.11066667,24.1313333 2.53,24.526 C2.94933333,24.9206667 3.27616667,25.2105 3.5105,25.3955 C3.74483333,25.5805 4.11483333,25.858 4.6205,26.228 C5.12616667,26.598 5.44066667,26.8323333 5.564,26.931 C6.69866667,27.8436667 7.266,28.744 7.266,29.632 C7.266,30.2733333 7.05016667,30.7975 6.6185,31.2045 C6.18683333,31.6115 5.65033333,31.815 5.009,31.815 C4.39233333,31.815 3.7695,31.6855 3.1405,31.4265 C2.5115,31.1675 2.17233333,30.8036667 2.123,30.335 C2.14766667,30.3596667 2.22783333,30.4336667 2.3635,30.557 C2.49916667,30.6803333 2.61633333,30.7605 2.715,30.7975 C2.81366667,30.8345 2.96166667,30.853 3.159,30.853 C3.57833333,30.853 3.94216667,30.6926667 4.2505,30.372 C4.55883333,30.0513333 4.713,29.632 4.713,29.114 C4.713,28.596 4.52183333,28.1581667 4.1395,27.8005 C3.75716667,27.4428333 3.307,27.264 2.789,27.264 C2.197,27.264 1.72216667,27.486 1.3645,27.93 C1.00683333,28.374 0.828,28.9166667 0.828,29.558 C0.828,30.6186667 1.30283333,31.4265 2.2525,31.9815 C3.20216667,32.5365 4.269,32.814 5.453,32.814 Z M26.877,32 C27.0496667,30.7173333 27.136,29.4593333 27.136,28.226 C27.136,27.4613333 26.8893333,26.8015 26.396,26.2465 C25.9026667,25.6915 25.2983333,25.414 24.583,25.414 C23.8923333,25.414 23.3065,25.6051667 22.8255,25.9875 C22.3445,26.3698333 22.104,26.8816667 22.104,27.523 C22.104,28.9536667 22.77,29.669 24.102,29.669 C25.064,29.669 25.545,29.1386667 25.545,28.078 C25.545,27.0913333 25.175,26.561 24.435,26.487 L24.435,26.487 L24.842,26.45 C25.7053333,26.45 26.137,27.005 26.137,28.115 C26.137,28.8796667 25.8225,29.5518333 25.1935,30.1315 C24.5645,30.7111667 23.843,31.0256667 23.029,31.075 L23.029,31.075 L21.438,31.075 C20.8953333,31.075 20.624,30.3843333 20.624,29.003 L20.624,29.003 L20.624,17.348 C21.2406667,16.7313333 21.8943333,16.423 22.585,16.423 C23.2263333,16.423 23.547,16.793 23.547,17.533 C23.547,17.755 23.3743333,17.94 23.029,18.088 C22.6836667,18.2113333 22.511,18.3346667 22.511,18.458 C22.511,18.68 22.6836667,18.791 23.029,18.791 L23.029,18.791 L27.099,18.791 C27.4443333,18.791 27.617,18.68 27.617,18.458 C27.617,18.3346667 27.543,18.2483333 27.395,18.199 L27.395,18.199 L26.988,18.088 C26.8893333,18.014 26.8091667,17.8536667 26.7475,17.607 C26.6858333,17.3603333 26.6303333,17.0581667 26.581,16.7005 C26.5316667,16.3428333 26.4823333,16.09 26.433,15.942 C26.0136667,14.6346667 25.175,13.981 23.917,13.981 C22.733,13.981 21.6353333,14.536 20.624,15.646 L20.624,15.646 L20.624,8.283 C20.624,6.951 20.846,6.285 21.29,6.285 L21.29,6.285 L22.918,6.285 C23.0413333,6.285 23.1585,6.36516667 23.2695,6.5255 C23.3805,6.68583333 23.436,6.803 23.436,6.877 C23.436,7.247 23.3003333,7.77733333 23.029,8.468 C22.7823333,9.10933333 22.659,9.62733333 22.659,10.022 C22.659,10.7866667 22.9118333,11.4403333 23.4175,11.983 C23.9231667,12.5256667 24.546,12.797 25.286,12.797 C25.9766667,12.797 26.5563333,12.612 27.025,12.242 C27.4936667,11.872 27.728,11.3786667 27.728,10.762 C27.728,9.30666667 27.025,8.579 25.619,8.579 C24.583,8.579 24.065,9.14633333 24.065,10.281 C24.065,11.2676667 24.4596667,11.7856667 25.249,11.835 C24.1143333,11.8103333 23.547,11.3663333 23.547,10.503 C23.547,9.467 23.9046667,8.542 24.62,7.728 C25.2613333,7.01266667 26.1,6.581 27.136,6.433 C27.58,6.359 27.802,6.11233333 27.802,5.693 C27.802,5.42166667 27.6293333,5.286 27.284,5.286 L27.284,5.286 L16.924,5.286 C16.6033333,5.286 16.443,5.45866667 16.443,5.804 C16.443,6.05066667 16.591,6.211 16.887,6.285 C17.3556667,6.40833333 17.59,7.07433333 17.59,8.283 L17.59,8.283 L17.59,29.003 C17.59,30.2363333 17.3556667,30.9146667 16.887,31.038 C16.591,31.112 16.443,31.2353333 16.443,31.408 C16.443,31.8026667 16.6033333,32 16.924,32 L16.924,32 L26.877,32 Z M38.052,32 C38.3726667,32 38.533,31.8643333 38.533,31.593 C38.533,31.297 38.385,31.112 38.089,31.038 C37.6203333,30.9146667 37.386,30.2363333 37.386,29.003 L37.386,29.003 L37.386,20.863 C37.386,18.421 38.496,15.5966667 40.716,12.39 L40.716,12.39 L40.716,29.04 C40.716,30.2486667 40.4693333,30.9146667 39.976,31.038 C39.68,31.112 39.532,31.297 39.532,31.593 C39.532,31.8643333 39.7046667,32 40.05,32 L40.05,32 L44.342,32 C44.6873333,32 44.86,31.8643333 44.86,31.593 C44.86,31.297 44.712,31.112 44.416,31.038 C43.972,30.9393333 43.75,30.2733333 43.75,29.04 L43.75,29.04 L43.75,8.283 C43.824,7.04966667 44.046,6.38366667 44.416,6.285 C44.712,6.211 44.86,6.03833333 44.86,5.767 C44.86,5.44633333 44.6873333,5.286 44.342,5.286 L44.342,5.286 L40.716,5.286 L40.716,5.915 C39.902,5.175 38.9276667,4.805 37.793,4.805 C36.9296667,4.805 36.1526667,5.10716667 35.462,5.7115 C34.7713333,6.31583333 34.426,7.03733333 34.426,7.876 C34.426,9.40533333 35.0796667,10.17 36.387,10.17 C37.5463333,10.17 38.126,9.578 38.126,8.394 C38.126,7.92533333 37.9841667,7.506 37.7005,7.136 C37.4168333,6.766 37.0653333,6.581 36.646,6.581 C36.424,6.581 36.202,6.63033333 35.98,6.729 C36.3746667,6.33433333 36.8926667,6.137 37.534,6.137 C38.1506667,6.137 38.8351667,6.359 39.5875,6.803 C40.3398333,7.247 40.716,7.75266667 40.716,8.32 C40.716,8.986 40.6111667,9.59033333 40.4015,10.133 C40.1918333,10.6756667 39.9636667,11.1258333 39.717,11.4835 C39.4703333,11.8411667 38.9893333,12.4516667 38.274,13.315 C38.126,13.4876667 37.8485,13.8206667 37.4415,14.314 C37.0345,14.8073333 36.7755,15.128 36.6645,15.276 C36.5535,15.424 36.3438333,15.7015 36.0355,16.1085 L35.9247891,16.2559219 C35.6779297,16.5877656 35.5113333,16.834625 35.425,16.9965 C35.3263333,17.1815 35.1845,17.459 34.9995,17.829 C34.8145,18.199 34.6911667,18.5196667 34.6295,18.791 C34.5678333,19.0623333 34.5061667,19.3768333 34.4445,19.7345 C34.3828333,20.0921667 34.352,20.4683333 34.352,20.863 L34.352,20.863 L34.352,29.003 C34.352,30.2116667 34.13,30.89 33.686,31.038 C33.39,31.112 33.242,31.2476667 33.242,31.445 C33.242,31.815 33.4023333,32 33.723,32 L33.723,32 L38.052,32 Z M61.141,32 C61.4616667,32 61.622,31.852 61.622,31.556 C61.622,31.2353333 61.4616667,31.038 61.141,30.964 C60.697,30.8653333 60.475,30.224 60.475,29.04 L60.475,29.04 L60.475,21.566 C60.475,20.308 59.9693333,19.383 58.958,18.791 C58.884,18.7663333 58.5448333,18.6245 57.9405,18.3655 C57.3361667,18.1065 56.9723333,17.94 56.849,17.866 C56.7256667,17.792 56.4543333,17.6255 56.035,17.3665 C55.6156667,17.1075 55.3443333,16.867 55.221,16.645 C55.0976667,16.423 54.962,16.1208333 54.814,15.7385 C54.666,15.3561667 54.592,14.943 54.592,14.499 C54.592,12.6983333 55.3196667,11.798 56.775,11.798 C57.959,11.798 58.6373333,12.2173333 58.81,13.056 C58.736,13.0066667 58.6311667,12.9388333 58.4955,12.8525 C58.3598333,12.7661667 58.2365,12.7045 58.1255,12.6675 C58.0145,12.6305 57.8603333,12.612 57.663,12.612 C57.293,12.612 56.96,12.7785 56.664,13.1115 C56.368,13.4445 56.22,13.87 56.22,14.388 C56.22,15.5226667 56.7996667,16.09 57.959,16.09 C58.551,16.09 59.0381667,15.868 59.4205,15.424 C59.8028333,14.98 59.994,14.4373333 59.994,13.796 C59.994,12.908 59.6918333,12.2111667 59.0875,11.7055 C58.4831667,11.1998333 57.6876667,10.947 56.701,10.947 C55.8623333,10.947 55.1223333,11.2676667 54.481,11.909 L54.481,11.909 L54.481,8.246 C54.481,7.01266667 54.703,6.34666667 55.147,6.248 C55.443,6.19866667 55.591,6.026 55.591,5.73 C55.591,5.434 55.4306667,5.286 55.11,5.286 L55.11,5.286 L50.781,5.286 C50.4603333,5.286 50.3,5.49566667 50.3,5.915 C50.3,6.08766667 50.448,6.19866667 50.744,6.248 C51.188,6.34666667 51.41,7.01266667 51.41,8.246 L51.41,8.246 L51.41,29.04 C51.41,30.224 51.188,30.8653333 50.744,30.964 C50.448,31.038 50.3,31.1983333 50.3,31.445 C50.3,31.815 50.4603333,32 50.781,32 L50.781,32 L61.141,32 Z M56.738,31.038 L55.295,31.038 C54.7523333,31.038 54.481,30.372 54.481,29.04 L54.481,29.04 L54.481,17.311 C54.8016667,17.7056667 55.2888333,18.1311667 55.9425,18.5875 C56.5961667,19.0438333 56.96,19.3213333 57.034,19.42 C57.3053333,19.8393333 57.441,20.5546667 57.441,21.566 L57.441,21.566 L57.441,29.04 C57.441,30.372 57.2066667,31.038 56.738,31.038 L56.738,31.038 Z M71.724,32.814 C73.0806667,32.814 74.1475,32.3268333 74.9245,31.3525 C75.7015,30.3781667 76.09,29.1633333 76.09,27.708 L76.09,27.708 L76.09,21.566 C76.09,20.3573333 76.3243333,19.679 76.793,19.531 C77.0643333,19.4816667 77.2,19.3213333 77.2,19.05 C77.2,18.7293333 77.0396667,18.569 76.719,18.569 L76.719,18.569 L72.39,18.569 C72.0693333,18.569 71.909,18.7293333 71.909,19.05 C71.909,19.2473333 72.057,19.4076667 72.353,19.531 C72.797,19.679 73.019,20.3573333 73.019,21.566 L73.019,21.566 L73.019,26.672 C71.0703333,25.0193333 70.096,23.1446667 70.096,21.048 L70.096,21.048 L70.096,7.173 C70.096,6.30966667 70.5523333,5.878 71.465,5.878 C72.4023333,5.878 72.871,6.30966667 72.871,7.173 L72.871,7.173 L72.871,9.837 C72.427,10.0096667 72.205,10.1823333 72.205,10.355 C72.205,10.5523333 72.3776667,10.651 72.723,10.651 L72.723,10.651 L76.793,10.651 C77.1136667,10.651 77.274,10.5523333 77.274,10.355 C77.274,10.1083333 77.126,9.948 76.83,9.874 L76.83,9.874 L76.682,9.8 C76.682,8.36933333 76.2318333,7.17916667 75.3315,6.2295 C74.4311667,5.27983333 73.2903333,4.805 71.909,4.805 C70.577,4.805 69.4361667,5.2675 68.4865,6.1925 C67.5368333,7.1175 67.062,8.246 67.062,9.578 L67.062,9.578 L67.062,21.307 C67.062,21.7016667 67.1483333,22.0963333 67.321,22.491 C67.4936667,22.8856667 67.6786667,23.2248333 67.876,23.5085 C68.0733333,23.7921667 68.3816667,24.1313333 68.801,24.526 C69.2203333,24.9206667 69.5471667,25.2105 69.7815,25.3955 C70.0158333,25.5805 70.3858333,25.858 70.8915,26.228 C71.3971667,26.598 71.7116667,26.8323333 71.835,26.931 C72.9696667,27.8436667 73.537,28.744 73.537,29.632 C73.537,30.2733333 73.3211667,30.7975 72.8895,31.2045 C72.4578333,31.6115 71.9213333,31.815 71.28,31.815 C70.6633333,31.815 70.0405,31.6855 69.4115,31.4265 C68.7825,31.1675 68.4433333,30.8036667 68.394,30.335 C68.4186667,30.3596667 68.4988333,30.4336667 68.6345,30.557 C68.7701667,30.6803333 68.8873333,30.7605 68.986,30.7975 C69.0846667,30.8345 69.2326667,30.853 69.43,30.853 C69.8493333,30.853 70.2131667,30.6926667 70.5215,30.372 C70.8298333,30.0513333 70.984,29.632 70.984,29.114 C70.984,28.596 70.7928333,28.1581667 70.4105,27.8005 C70.0281667,27.4428333 69.578,27.264 69.06,27.264 C68.468,27.264 67.9931667,27.486 67.6355,27.93 C67.2778333,28.374 67.099,28.9166667 67.099,29.558 C67.099,30.6186667 67.5738333,31.4265 68.5235,31.9815 C69.4731667,32.5365 70.54,32.814 71.724,32.814 Z M87.524,32 C87.8446667,32 88.005,31.852 88.005,31.556 C88.005,31.2353333 87.857,31.038 87.561,30.964 C87.117,30.8653333 86.895,30.224 86.895,29.04 L86.895,29.04 L86.895,15.646 C87.5674348,16.4246087 88.0903541,17.0283125 88.463758,17.4571115 L88.6526049,17.673656 C88.9426364,18.0056534 89.1091014,18.1931014 89.152,18.236 C89.6206667,19.0253333 89.855,20.1353333 89.855,21.566 L89.855,21.566 L89.855,29.04 C89.855,30.15 89.6576667,30.7913333 89.263,30.964 C88.893,31.112 88.708,31.3093333 88.708,31.556 C88.708,31.852 88.8683333,32 89.189,32 L89.189,32 L93.555,32 C93.8756667,32 94.036,31.852 94.036,31.556 C94.036,31.2353333 93.8756667,31.038 93.555,30.964 C93.111,30.8653333 92.889,30.224 92.889,29.04 L92.889,29.04 L92.889,21.566 C92.889,20.9986667 92.7533333,20.4498333 92.482,19.9195 C92.2106667,19.3891667 91.9393333,18.976 91.668,18.68 C91.3966667,18.384 90.9403333,17.94 90.299,17.348 C90.0276667,17.0766667 89.6885,16.756 89.2815,16.386 C88.8745,16.016 88.5538333,15.72 88.3195,15.498 C88.0851667,15.276 87.9556667,15.128 87.931,15.054 L87.931,15.054 L91.15,13.093 C91.9393333,12.5996667 92.4203333,12.0693333 92.593,11.502 C92.7903333,10.8606667 92.889,9.77533333 92.889,8.246 C92.889,7.01266667 93.111,6.34666667 93.555,6.248 C93.8756667,6.22333333 94.036,6.05066667 94.036,5.73 C94.036,5.434 93.8756667,5.286 93.555,5.286 L93.555,5.286 L89.189,5.286 C88.8683333,5.286 88.708,5.434 88.708,5.73 C88.708,6.026 88.893,6.211 89.263,6.285 C89.6576667,6.359 89.855,7.01266667 89.855,8.246 L89.855,8.246 L89.855,11.243 C89.855,11.8596667 89.5466667,12.4393333 88.93,12.982 C88.634,13.278 88.0913333,13.7096667 87.302,14.277 C87.0306667,13.8576667 86.895,13.463 86.895,13.093 L86.895,13.093 L86.895,8.246 C86.895,7.01266667 87.117,6.34666667 87.561,6.248 C87.857,6.19866667 88.005,6.026 88.005,5.73 C88.005,5.434 87.8446667,5.286 87.524,5.286 L87.524,5.286 L83.195,5.286 C82.8743333,5.286 82.714,5.471 82.714,5.841 C82.714,6.063 82.862,6.19866667 83.158,6.248 C83.602,6.34666667 83.824,7.01266667 83.824,8.246 L83.824,8.246 L83.824,29.003 C83.824,30.1623333 83.639,30.8036667 83.269,30.927 C82.899,31.075 82.714,31.2476667 82.714,31.445 C82.714,31.815 82.8743333,32 83.195,32 L83.195,32 L87.524,32 Z M104.286,32 C104.606667,32 104.767,31.852 104.767,31.556 C104.767,31.2846667 104.619,31.112 104.323,31.038 C103.879,30.9393333 103.657,30.261 103.657,29.003 L103.657,29.003 L103.657,17.089 L106.617,12.649 L106.617,29.003 C106.617,29.6936667 106.58,30.1746667 106.506,30.446 C106.432,30.7173333 106.247,30.9146667 105.951,31.038 C105.630333,31.1366667 105.47,31.3216667 105.47,31.593 C105.47,31.8643333 105.630333,32 105.951,32 L105.951,32 L110.317,32 C110.637667,32 110.798,31.8643333 110.798,31.593 C110.798,31.297 110.637667,31.112 110.317,31.038 C109.873,30.9393333 109.651,30.261 109.651,29.003 L109.651,29.003 L109.651,8.283 C109.651,7.07433333 109.873,6.40833333 110.317,6.285 C110.637667,6.211 110.798,6.03833333 110.798,5.767 C110.798,5.44633333 110.637667,5.286 110.317,5.286 L110.317,5.286 L105.951,5.286 C105.630333,5.286 105.47,5.44633333 105.47,5.767 C105.47,6.03833333 105.655,6.22333333 106.025,6.322 C106.419667,6.396 106.617,7.04966667 106.617,8.283 L106.617,8.283 L106.617,10.207 L103.657,14.684 L103.657,8.283 C103.657,7.07433333 103.879,6.40833333 104.323,6.285 C104.619,6.211 104.767,6.03833333 104.767,5.767 C104.767,5.44633333 104.606667,5.286 104.286,5.286 L104.286,5.286 L99.957,5.286 C99.6363333,5.286 99.476,5.48333333 99.476,5.878 C99.476,6.07533333 99.624,6.211 99.92,6.285 C100.388667,6.38366667 100.623,7.04966667 100.623,8.283 L100.623,8.283 L100.623,29.003 C100.623,30.261 100.388667,30.9393333 99.92,31.038 C99.624,31.112 99.476,31.26 99.476,31.482 C99.476,31.8273333 99.6486667,32 99.994,32 L99.994,32 L104.286,32 Z M121.899,4.509 C122.836333,4.509 123.742833,4.31166667 124.6185,3.917 C125.494167,3.52233333 125.932,2.94266667 125.932,2.178 C125.932,1.01866667 125.34,0.439 124.156,0.439 C122.996667,0.439 122.417,1.01866667 122.417,2.178 C122.417,2.77 122.639,3.214 123.083,3.51 C122.639,3.63333333 122.244333,3.695 121.899,3.695 C121.553667,3.695 121.159,3.63333333 120.715,3.51 C121.134333,3.214 121.344,2.77 121.344,2.178 C121.344,1.01866667 120.776667,0.439 119.642,0.439 C118.482667,0.439 117.903,1.01866667 117.903,2.178 C117.903,2.94266667 118.334667,3.52233333 119.198,3.917 C120.061333,4.31166667 120.961667,4.509 121.899,4.509 Z M121.048,32 C121.368667,32 121.529,31.852 121.529,31.556 C121.529,31.2846667 121.381,31.112 121.085,31.038 C120.641,30.9393333 120.419,30.261 120.419,29.003 L120.419,29.003 L120.419,17.089 L123.379,12.649 L123.379,29.003 C123.379,29.6936667 123.342,30.1746667 123.268,30.446 C123.194,30.7173333 123.009,30.9146667 122.713,31.038 C122.392333,31.1366667 122.232,31.3216667 122.232,31.593 C122.232,31.8643333 122.392333,32 122.713,32 L122.713,32 L127.079,32 C127.399667,32 127.56,31.8643333 127.56,31.593 C127.56,31.297 127.399667,31.112 127.079,31.038 C126.635,30.9393333 126.413,30.261 126.413,29.003 L126.413,29.003 L126.413,8.283 C126.413,7.07433333 126.635,6.40833333 127.079,6.285 C127.399667,6.211 127.56,6.03833333 127.56,5.767 C127.56,5.44633333 127.399667,5.286 127.079,5.286 L127.079,5.286 L122.713,5.286 C122.392333,5.286 122.232,5.44633333 122.232,5.767 C122.232,6.03833333 122.417,6.22333333 122.787,6.322 C123.181667,6.396 123.379,7.04966667 123.379,8.283 L123.379,8.283 L123.379,10.207 L120.419,14.684 L120.419,8.283 C120.419,7.07433333 120.641,6.40833333 121.085,6.285 C121.381,6.211 121.529,6.03833333 121.529,5.767 C121.529,5.44633333 121.368667,5.286 121.048,5.286 L121.048,5.286 L116.719,5.286 C116.398333,5.286 116.238,5.48333333 116.238,5.878 C116.238,6.07533333 116.386,6.211 116.682,6.285 C117.150667,6.38366667 117.385,7.04966667 117.385,8.283 L117.385,8.283 L117.385,29.003 C117.385,30.261 117.150667,30.9393333 116.682,31.038 C116.386,31.112 116.238,31.26 116.238,31.482 C116.238,31.8273333 116.410667,32 116.756,32 L116.756,32 L121.048,32 Z" id="СЕЛЬСКИЙ"></path>
            <path d="M3.02684564,70 L3.02684564,59.5387755 L3.86353468,57.2040816 L7.65324385,70 L11,70 L5.68456376,52.0408163 L11,37 L7.57941834,37 L3.02684564,50.7387755 L3.02684564,37 L0,37 L0,70 L3.02684564,70 Z M50,70 L50,37 L40.6666667,37 L40.0121212,60.9755102 C39.9959596,61.5142857 39.9636364,62.0530612 39.9151515,62.5918367 C39.8666667,63.1306122 39.7575758,63.6394558 39.5878788,64.1183673 C39.4181818,64.5972789 39.1878788,64.9115646 38.8969697,65.0612245 C38.6060606,65.2108844 38.3070707,65.2857143 38,65.2857143 L38,70 C38.5333333,70 39.0707071,69.947619 39.6121212,69.8428571 C40.1535354,69.7380952 40.6545455,69.4312925 41.1151515,68.922449 C41.5757576,68.4136054 41.9515152,67.7326531 42.2424242,66.8795918 C42.5333333,66.0265306 42.7272727,65.1136054 42.8242424,64.1408163 C42.9212121,63.1680272 42.9858586,62.1877551 43.0181818,61.2 L43.5272727,41.7142857 L46.9939394,41.7142857 L46.9939394,70 L50,70 Z M83.2669492,70 L89,37 L85.9936441,37 L83.5466102,53.2530612 L81.0063559,37 L78,37 L82.0317797,59.7632653 L81.5889831,62.3673469 C81.3714689,63.6244898 81.1539548,64.8891156 80.9364407,66.1612245 C80.7189266,67.4333333 80.4936441,68.7129252 80.2605932,70 L83.2669492,70 Z M122.803532,70 C123.532009,70 124.24025,69.7829932 124.928256,69.3489796 C125.616262,68.914966 126.203091,68.1891156 126.688742,67.1714286 C127.174393,66.1537415 127.514349,64.9938776 127.708609,63.6918367 C127.90287,62.3897959 128,61.0653061 128,59.7183673 C128,58.4013605 127.90287,57.0918367 127.708609,55.7897959 C127.514349,54.4877551 127.174393,53.3278912 126.688742,52.3102041 C126.203091,51.292517 125.616262,50.5666667 124.928256,50.1326531 C124.24025,49.6986395 123.532009,49.4816327 122.803532,49.4816327 L119.986755,49.4816327 L119.986755,41.7142857 L126.713024,41.7142857 L126.713024,37 L117,37 L117,70 L122.803532,70 Z M122.815534,66 L120,66 L120,55 L122.815534,55 C123.171521,55 123.507282,55.1558704 123.822816,55.4676113 C124.13835,55.7793522 124.381068,56.217274 124.550971,56.7813765 C124.720874,57.3454791 124.838188,57.9466937 124.902913,58.5850202 C124.967638,59.2233468 125,59.854251 125,60.4777328 C125,61.1309042 124.967638,61.7766532 124.902913,62.4149798 C124.838188,63.0533063 124.720874,63.6545209 124.550971,64.2186235 C124.381068,64.782726 124.13835,65.2206478 123.822816,65.5323887 C123.507282,65.8441296 123.171521,66 122.815534,66 Z" id="КЛУБ"></path>
        </g>
    </g>
</svg>